{"title":"The New World (2005) BRRip 480p Hindi Dubbed","uid":7012621,"size":927588077,"categoryP":"video","categoryS":"hd___movies","magnet":"?xt=urn:btih:435a3e7764b78005b70f07b71071da6fd9c2e26c&amp;dn=The+New+World+%282005%29+BRRip+480p+Hindi+Dubbed&amp;tr=udp%3A%2F%2Ftracker.openbittorrent.com%3A80&amp;tr=udp%3A%2F%2Fopen.demonii.com%3A1337&amp;tr=udp%3A%2F%2Ftracker.coppersurfer.tk%3A6969&amp;tr=udp%3A%2F%2Fexodus.desync.com%3A6969","seeders":1,"leechers":1,"uploader":"HDvideos","files":-1,"time":1328527445,"description":"mastitorrents.com\n &lt;a href=&quot;\nhttp://mastitorrents.com/forums/index.php&quot; rel=&quot;nofollow&quot; target=&quot;_NEW&quot;&gt;\nhttp://mastitorrents.com/forums/index.php&lt;/a&gt;\n &lt;a href=&quot;\nhttp://thepiratebay.se/user/HDvideos/0/7&quot; rel=&quot;nofollow&quot; target=&quot;_NEW&quot;&gt;\nhttp://thepiratebay.se/user/HDvideos/0/7&lt;/a&gt;\n\nThe New World (2005) BRRip 480p Hindi Dubbed@Mastitorrents\n\nFormat : Matroska\nFile size : 877 MiB\nDuration : 2h 9mn\nOverall bit rate : 946 Kbps\nMovie name : The New World 2005 BRRip 480p Hindi\n\nVideo\nID : 1\nFormat : AVC\nFormat/Info : Advanced Video Codec\nFormat profile : &lt;a class=&quot;__cf_email__&quot; href=&quot;/cdn-cgi/l/email-protection&quot; data-cfemail=&quot;9bd3f2fcf3dbd7afb5ab&quot;&gt;[email&amp;#160;protected]&lt;/a&gt;&lt;script cf-hash='f9e31' type=&quot;text/javascript&quot;&gt;\n/* &lt;![CDATA[ */!function(){try{var t=&quot;currentScript&quot;in document?document.currentScript:function(){for(var t=document.getElementsByTagName(&quot;script&quot;),e=t.length;e--;)if(t[e].getAttribute(&quot;cf-hash&quot;))return t[e]}();if(t&amp;&amp;t.previousSibling){var e,r,n,i,c=t.previousSibling,a=c.getAttribute(&quot;data-cfemail&quot;);if(a){for(e=&quot;&quot;,r=parseInt(a.substr(0,2),16),n=2;a.length-n;n+=2)i=parseInt(a.substr(n,2),16)^r,e+=String.fromCharCode(i);e=document.createTextNode(e),c.parentNode.replaceChild(e,c)}}}catch(u){}}();/* ]]&gt; */&lt;/script&gt;\nFormat settings, CABAC : Yes\nFormat settings, ReFrames : 3 frames\nMuxing mode : Container profile=&lt;a class=&quot;__cf_email__&quot; href=&quot;/cdn-cgi/l/email-protection&quot; data-cfemail=&quot;d98cb7b2b7b6aeb799edf7e9&quot;&gt;[email&amp;#160;protected]&lt;/a&gt;&lt;script cf-hash='f9e31' type=&quot;text/javascript&quot;&gt;\n/* &lt;![CDATA[ */!function(){try{var t=&quot;currentScript&quot;in document?document.currentScript:function(){for(var t=document.getElementsByTagName(&quot;script&quot;),e=t.length;e--;)if(t[e].getAttribute(&quot;cf-hash&quot;))return t[e]}();if(t&amp;&amp;t.previousSibling){var e,r,n,i,c=t.previousSibling,a=c.getAttribute(&quot;data-cfemail&quot;);if(a){for(e=&quot;&quot;,r=parseInt(a.substr(0,2),16),n=2;a.length-n;n+=2)i=parseInt(a.substr(n,2),16)^r,e+=String.fromCharCode(i);e=document.createTextNode(e),c.parentNode.replaceChild(e,c)}}}catch(u){}}();/* ]]&gt; */&lt;/script&gt;\nCodec ID : V_MPEG4/ISO/AVC\nDuration : 2h 9mn\nBit rate : 800 Kbps\nWidth : 912 pixels\nHeight : 398 pixels\nDisplay aspect ratio : 2.25:1\nFrame rate : 25.000 fps\nResolution : 24 bits\nColorimetry : 4:2:0\nScan type : Progressive\nBits/(Pixel*Frame) : 0.088\nStream size : 741 MiB (84%)\nLanguage : Hindi\n\nAudio\nID : 2\nFormat : MPEG Audio\nFormat version : Version 1\nFormat profile : Layer 3\nCodec ID : A_MPEG/L3\nCodec ID/Hint : MP3\nDuration : 2h 9mn\nBit rate mode : Constant\nBit rate : 128 Kbps\nChannel(s) : 2 channels\nSampling rate : 44.1 KHz\nResolution : 16 bits\nStream size : 119 MiB (14%)\nLanguage : Hindi","torrent":{"xt":"urn:btih:435a3e7764b78005b70f07b71071da6fd9c2e26c","amp;dn":"The+New+World+%282005%29+BRRip+480p+Hindi+Dubbed","amp;tr":["udp%3A%2F%2Ftracker.openbittorrent.com%3A80","udp%3A%2F%2Fopen.demonii.com%3A1337","udp%3A%2F%2Ftracker.coppersurfer.tk%3A6969","udp%3A%2F%2Fexodus.desync.com%3A6969"],"infoHash":"435a3e7764b78005b70f07b71071da6fd9c2e26c","infoHashBuffer":{"type":"Buffer","data":[67,90,62,119,100,183,128,5,183,15,7,183,16,113,218,111,217,194,226,108]},"announce":[],"urlList":[]}}